<?xml version="1.0" encoding="utf-8"?>
<!-- Generator: Adobe Illustrator 27.5.0, SVG Export Plug-In . SVG Version: 6.00 Build 0)  -->
<svg version="1.1" id="Layer_1" xmlns="http://www.w3.org/2000/svg" xmlns:xlink="http://www.w3.org/1999/xlink" x="0px" y="0px"
	 viewBox="0 0 195.8 223.4" style="enable-background:new 0 0 195.8 223.4;" xml:space="preserve">
<style type="text/css">
	.st0{fill:none;stroke:#231F20;stroke-width:7;stroke-miterlimit:10;}
	.st1{fill:none;stroke:#231F20;stroke-width:7;stroke-linecap:round;stroke-linejoin:round;}
</style>
<g>
	<path class="st0" d="M20.8,153.9h153c7.2,0,13-6.3,13-14v-27.7c0-7.7-5.8-14-13-14h-153c-7.2,0-13,6.3-13,14v27.7
		C7.8,147.7,13.6,153.9,20.8,153.9z"/>
	<circle class="st0" cx="33.9" cy="126.1" r="11.5"/>
	<path class="st0" d="M21.4,219.9h153c7.2,0,13-6.3,13-14v-27.7c0-7.7-5.8-14-13-14h-153c-7.2,0-13,6.3-13,14v27.7
		C8.4,213.6,14.2,219.9,21.4,219.9z"/>
	<circle class="st0" cx="34.5" cy="192" r="11.5"/>
	<path class="st1" d="M190.1,77.1L101.8,4.9C99.5,3,96.3,3,94,4.9L64.4,29.1V13.9h-23V48L5.8,77.1C1.3,80.8,3.9,88,9.6,88h176.6
		C192,88,194.5,80.8,190.1,77.1L190.1,77.1z"/>
</g>
</svg>
